# Blender v2.83.0 OBJ File: ''
# www.blender.org
mtllib walls.mtl
o Cube.007_Cube.008
v 7.935864 15.726862 11.492116
v 7.935864 15.726868 -4.509420
v -8.065672 15.726868 -4.509420
v -8.065672 15.726862 11.492116
vt 0.361113 0.388606
vt 0.361113 0.388606
vt 0.361113 0.388606
vt 0.361113 0.388606
vn 0.0000 1.0000 0.0000
g Cube.007_Cube.008_Cube.007_Cube.008_top
usemtl top
s off
f 1/1/1 2/2/1 3/3/1 4/4/1
o Cube.006_Cube.007
v -8.065672 -0.274674 11.492110
v -8.065672 -0.274668 -4.509425
v 7.935864 -0.274668 -4.509425
v 7.935864 -0.274674 11.492110
vt 0.361113 0.388606
vt 0.361113 0.388606
vt 0.361113 0.388606
vt 0.361113 0.388606
vn 0.0000 -1.0000 -0.0000
g Cube.006_Cube.007_Cube.006_Cube.007_floor
usemtl floor
s off
f 5/5/2 6/6/2 7/7/2 8/8/2
o Cube.005_Cube.006
v -8.065672 15.726862 11.492116
v -8.065672 15.726868 -4.509420
v -8.065672 -0.274668 -4.509425
v -8.065672 -0.274674 11.492110
vt 0.361113 0.388606
vt 0.361113 0.388606
vt 0.361113 0.388606
vt 0.361113 0.388606
vn -1.0000 -0.0000 0.0000
g Cube.005_Cube.006_Cube.005_Cube.006_Left
usemtl Left
s off
f 9/9/3 10/10/3 11/11/3 12/12/3
o Cube.004_Cube.005
v -8.065672 15.726868 -4.509420
v 7.935864 15.726868 -4.509420
v 7.935864 -0.274668 -4.509425
v -8.065672 -0.274668 -4.509425
vt 0.361113 0.388606
vt 0.361113 0.388606
vt 0.361113 0.388606
vt 0.361113 0.388606
vn 0.0000 0.0000 -1.0000
g Cube.004_Cube.005_Cube.004_Cube.005_back
usemtl back
s off
f 13/13/4 14/14/4 15/15/4 16/16/4
o Cube.003_Cube.004
v 7.935864 15.726868 -4.509420
v 7.935864 15.726862 11.492116
v 7.935864 -0.274674 11.492110
v 7.935864 -0.274668 -4.509425
vt 0.361113 0.388606
vt 0.361113 0.388606
vt 0.361113 0.388606
vt 0.361113 0.388606
vn 1.0000 -0.0000 0.0000
g Cube.003_Cube.004_Cube.003_Cube.004_Right
usemtl Right
s off
f 17/17/5 18/18/5 19/19/5 20/20/5
